<?xml version="1.0" standalone="no"?>
<!DOCTYPE svg PUBLIC "-//W3C//DTD SVG 20010904//EN"
 "http://www.w3.org/TR/2001/REC-SVG-20010904/DTD/svg10.dtd">
<svg version="1.0" xmlns="http://www.w3.org/2000/svg"
 width="199.000000pt" height="199.000000pt" viewBox="0 0 199.000000 199.000000"
 preserveAspectRatio="xMidYMid meet">
<metadata>
Created by potrace 1.14, written by Peter Selinger 2001-2017
</metadata>
<g transform="translate(0.000000,199.000000) scale(0.100000,-0.100000)"
fill="#000000" stroke="none">
<path d="M1172 1788 c-7 -7 -12 -8 -12 -2 0 5 -3 5 -8 -1 -15 -21 -133 -75
-174 -80 -85 -10 -193 -40 -242 -68 -12 -6 -24 -10 -28 -9 -5 1 -8 -2 -8 -8 0
-5 -7 -10 -15 -10 -8 0 -15 -4 -15 -10 0 -5 -7 -10 -15 -10 -8 0 -15 -4 -15
-10 0 -5 -5 -10 -11 -10 -16 0 -149 -141 -149 -157 0 -7 -4 -13 -9 -13 -19 0
-89 -182 -97 -255 -12 -108 -5 -199 25 -291 37 -118 80 -186 173 -274 171
-164 405 -221 633 -155 171 50 332 188 403 345 30 67 50 131 53 170 2 19 5 39
7 44 9 17 2 142 -12 206 -18 84 -104 268 -106 224 0 -5 5 -15 12 -22 32 -32
65 -182 62 -282 -7 -271 -188 -498 -455 -569 -109 -30 -321 -12 -376 32 -7 5
-13 6 -13 3 0 -4 -27 11 -59 33 -104 71 -187 184 -230 316 -10 30 -17 55 -15
55 3 0 13 -15 24 -32 23 -38 24 -36 9 12 -21 71 -23 87 -23 185 1 88 4 109 30
170 18 42 36 70 44 70 8 0 25 20 36 45 24 51 95 128 139 150 17 8 32 18 36 22
6 9 143 58 161 58 6 0 -11 -11 -39 -25 -43 -22 -99 -70 -157 -135 -8 -8 -25
-38 -39 -66 -65 -128 -70 -277 -13 -375 48 -83 113 -139 73 -63 -27 52 -50
115 -43 121 2 2 9 -10 16 -27 7 -16 17 -30 23 -30 6 0 8 -3 4 -6 -7 -8 123
-124 139 -124 7 0 14 -4 16 -8 2 -5 35 -29 74 -54 89 -57 108 -72 163 -128
l45 -45 -25 45 c-23 42 -73 95 -222 238 -86 81 -99 109 -91 184 4 32 13 66 21
75 13 16 13 16 3 -5 -6 -12 -9 -35 -7 -51 10 -60 55 -99 135 -116 17 -4 49
-21 70 -38 21 -18 54 -43 72 -57 52 -38 71 -59 81 -89 39 -111 236 -41 233 83
-1 38 -70 210 -145 359 -10 20 -17 37 -15 37 15 0 -24 86 -65 143 -27 37 -49
72 -49 77 0 6 -3 10 -8 10 -4 0 -13 9 -19 20 -11 16 -7 29 27 89 22 39 40 77
40 86 0 18 -41 20 -58 3z"/>
<path d="M583 1233 c-4 -16 -6 -34 -5 -40 2 -7 -1 -13 -5 -13 -16 0 -4 -127
17 -182 26 -69 75 -128 154 -180 l61 -41 -68 68 c-46 47 -79 92 -105 144 -35
71 -37 80 -37 173 0 54 -1 98 -2 98 -2 0 -6 -12 -10 -27z"/>
</g>
</svg>
